<svg width="48" height="48" viewBox="0 0 48 48" fill="none" xmlns="http://www.w3.org/2000/svg">
<g filter="url(#filter0_iii_66_9)">
<g clip-path="url(#clip0_66_9)">
<rect width="48" height="48" rx="12" fill="#3B82F6"/>
<rect width="48" height="48" fill="url(#paint0_linear_66_9)"/>
<g filter="url(#filter1_d_66_9)">
<path d="M30.4839 35.376C30.0316 36.3813 29.4692 37.3658 28.795 38.2176C34.3886 36.3323 38.5063 31.2386 38.9596 25.125H36.9684C34.5385 25.125 32.5866 27.0646 32.1916 29.4622C31.8275 31.6723 31.245 33.6847 30.4839 35.376Z" fill="url(#paint1_linear_66_9)"/>
<path d="M26.0798 25.125C28.6239 25.125 30.705 27.2474 30.2377 29.7482C29.2228 35.18 26.8127 39 24.0011 39C20.4435 39 17.5287 32.8838 17.2698 25.125H26.0798Z" fill="url(#paint2_linear_66_9)"/>
<path d="M32.2433 18.8626C32.6154 21.2826 34.5763 23.25 37.0247 23.25H38.9827C38.6735 16.9704 34.5026 11.7061 28.795 9.78238C29.4692 10.6342 30.0316 11.6187 30.4839 12.624C31.2821 14.3977 31.8839 16.5248 32.2433 18.8626Z" fill="url(#paint3_linear_66_9)"/>
<path d="M30.3129 18.6718C30.7384 21.16 28.6663 23.25 26.142 23.25H17.2594C17.4352 15.3142 20.3864 9 24.0011 9C26.8846 9 29.3458 13.0179 30.3129 18.6718Z" fill="url(#paint4_linear_66_9)"/>
<path d="M15.384 23.25C15.4692 19.1938 16.243 15.4579 17.5183 12.624C17.9707 11.6187 18.533 10.6342 19.2072 9.78238C13.4997 11.7061 9.32875 16.9703 9.01953 23.25H15.384Z" fill="url(#paint5_linear_66_9)"/>
<path d="M9.04266 25.125C9.49596 31.2386 13.6136 36.3323 19.2072 38.2176C18.533 37.3658 17.9707 36.3813 17.5183 35.376C16.2824 32.6296 15.5175 29.0362 15.3938 25.125H9.04266Z" fill="url(#paint6_linear_66_9)"/>
</g>
</g>
<rect x="1" y="1" width="46" height="46" rx="11" stroke="url(#paint7_linear_66_9)" stroke-width="2"/>
</g>
<defs>
<filter id="filter0_iii_66_9" x="0" y="-3" width="48" height="54" filterUnits="userSpaceOnUse" color-interpolation-filters="sRGB">
<feFlood flood-opacity="0" result="BackgroundImageFix"/>
<feBlend mode="normal" in="SourceGraphic" in2="BackgroundImageFix" result="shape"/>
<feColorMatrix in="SourceAlpha" type="matrix" values="0 0 0 0 0 0 0 0 0 0 0 0 0 0 0 0 0 0 127 0" result="hardAlpha"/>
<feOffset dy="-3"/>
<feGaussianBlur stdDeviation="1.5"/>
<feComposite in2="hardAlpha" operator="arithmetic" k2="-1" k3="1"/>
<feColorMatrix type="matrix" values="0 0 0 0 0 0 0 0 0 0 0 0 0 0 0 0 0 0 0.1 0"/>
<feBlend mode="normal" in2="shape" result="effect1_innerShadow_66_9"/>
<feColorMatrix in="SourceAlpha" type="matrix" values="0 0 0 0 0 0 0 0 0 0 0 0 0 0 0 0 0 0 127 0" result="hardAlpha"/>
<feOffset dy="3"/>
<feGaussianBlur stdDeviation="1.5"/>
<feComposite in2="hardAlpha" operator="arithmetic" k2="-1" k3="1"/>
<feColorMatrix type="matrix" values="0 0 0 0 1 0 0 0 0 1 0 0 0 0 1 0 0 0 0.1 0"/>
<feBlend mode="normal" in2="effect1_innerShadow_66_9" result="effect2_innerShadow_66_9"/>
<feColorMatrix in="SourceAlpha" type="matrix" values="0 0 0 0 0 0 0 0 0 0 0 0 0 0 0 0 0 0 127 0" result="hardAlpha"/>
<feMorphology radius="1" operator="erode" in="SourceAlpha" result="effect3_innerShadow_66_9"/>
<feOffset/>
<feComposite in2="hardAlpha" operator="arithmetic" k2="-1" k3="1"/>
<feColorMatrix type="matrix" values="0 0 0 0 0.0627451 0 0 0 0 0.0941176 0 0 0 0 0.156863 0 0 0 0.24 0"/>
<feBlend mode="normal" in2="effect2_innerShadow_66_9" result="effect3_innerShadow_66_9"/>
</filter>
<filter id="filter1_d_66_9" x="6" y="5.25" width="36" height="42" filterUnits="userSpaceOnUse" color-interpolation-filters="sRGB">
<feFlood flood-opacity="0" result="BackgroundImageFix"/>
<feColorMatrix in="SourceAlpha" type="matrix" values="0 0 0 0 0 0 0 0 0 0 0 0 0 0 0 0 0 0 127 0" result="hardAlpha"/>
<feMorphology radius="1.5" operator="erode" in="SourceAlpha" result="effect1_dropShadow_66_9"/>
<feOffset dy="2.25"/>
<feGaussianBlur stdDeviation="2.25"/>
<feComposite in2="hardAlpha" operator="out"/>
<feColorMatrix type="matrix" values="0 0 0 0 0.141176 0 0 0 0 0.141176 0 0 0 0 0.141176 0 0 0 0.1 0"/>
<feBlend mode="normal" in2="BackgroundImageFix" result="effect1_dropShadow_66_9"/>
<feBlend mode="normal" in="SourceGraphic" in2="effect1_dropShadow_66_9" result="shape"/>
</filter>
<linearGradient id="paint0_linear_66_9" x1="24" y1="5.96047e-07" x2="26" y2="48" gradientUnits="userSpaceOnUse">
<stop stop-color="#3B82F6"/>
<stop offset="0.579" stop-color="#4D90FF"/>
<stop offset="1" stop-color="#79A9F8"/>
</linearGradient>
<linearGradient id="paint1_linear_66_9" x1="24.0011" y1="9" x2="24.0011" y2="39" gradientUnits="userSpaceOnUse">
<stop stop-color="white"/>
<stop offset="1" stop-color="white" stop-opacity="0.5"/>
</linearGradient>
<linearGradient id="paint2_linear_66_9" x1="24.0011" y1="9" x2="24.0011" y2="39" gradientUnits="userSpaceOnUse">
<stop stop-color="white"/>
<stop offset="1" stop-color="white" stop-opacity="0.5"/>
</linearGradient>
<linearGradient id="paint3_linear_66_9" x1="24.0011" y1="9" x2="24.0011" y2="39" gradientUnits="userSpaceOnUse">
<stop stop-color="white"/>
<stop offset="1" stop-color="white" stop-opacity="0.5"/>
</linearGradient>
<linearGradient id="paint4_linear_66_9" x1="24.0011" y1="9" x2="24.0011" y2="39" gradientUnits="userSpaceOnUse">
<stop stop-color="white"/>
<stop offset="1" stop-color="white" stop-opacity="0.5"/>
</linearGradient>
<linearGradient id="paint5_linear_66_9" x1="24.0011" y1="9" x2="24.0011" y2="39" gradientUnits="userSpaceOnUse">
<stop stop-color="white"/>
<stop offset="1" stop-color="white" stop-opacity="0.5"/>
</linearGradient>
<linearGradient id="paint6_linear_66_9" x1="24.0011" y1="9" x2="24.0011" y2="39" gradientUnits="userSpaceOnUse">
<stop stop-color="white"/>
<stop offset="1" stop-color="white" stop-opacity="0.5"/>
</linearGradient>
<linearGradient id="paint7_linear_66_9" x1="24" y1="0" x2="24" y2="48" gradientUnits="userSpaceOnUse">
<stop stop-color="white" stop-opacity="0.12"/>
<stop offset="1" stop-color="white" stop-opacity="0"/>
</linearGradient>
<clipPath id="clip0_66_9">
<rect width="48" height="48" rx="12" fill="white"/>
</clipPath>
</defs>
</svg>
